<?xml version="1.0" encoding="utf-8"?>
<!-- Generator: Adobe Illustrator 24.0.1, SVG Export Plug-In . SVG Version: 6.00 Build 0)  -->
<svg version="1.1" id="Camada_1" xmlns="http://www.w3.org/2000/svg" xmlns:xlink="http://www.w3.org/1999/xlink" x="0px" y="0px"
	 viewBox="0 0 32 32" style="enable-background:new 0 0 32 32;" xml:space="preserve">
<style type="text/css">
	.st0{fill:url(#SVGID_1_);stroke:url(#SVGID_2_);stroke-miterlimit:10;}
	.st1{fill:#EDEDED;stroke:#1D1D1B;stroke-linecap:round;stroke-miterlimit:10;}
	.st2{fill:#FFFFFF;stroke:#FFFFFF;stroke-miterlimit:10;}
</style>
<linearGradient id="SVGID_1_" gradientUnits="userSpaceOnUse" x1="4.4467" y1="13.1442" x2="28.8147" y2="13.1442">
	<stop  offset="0" style="stop-color:#8C6239"/>
	<stop  offset="0" style="stop-color:#870000"/>
	<stop  offset="1" style="stop-color:#190A05"/>
</linearGradient>
<linearGradient id="SVGID_2_" gradientUnits="userSpaceOnUse" x1="3.9467" y1="13.1442" x2="29.3147" y2="13.1442">
	<stop  offset="0" style="stop-color:#870000"/>
	<stop  offset="1" style="stop-color:#190A05"/>
</linearGradient>
<path class="st0" d="M19.94,23.1H5.85c-0.78,0-1.4-0.63-1.4-1.4v-8.26c0-0.78,0.63-1.4,1.4-1.4h14.09c0.78,0,1.4,0.63,1.4,1.4v8.26
	C21.34,22.47,20.71,23.1,19.94,23.1z M8.18,3.19c-2.06,0-3.74,1.67-3.74,3.74s1.67,3.74,3.74,3.74s3.74-1.67,3.74-3.74
	S10.25,3.19,8.18,3.19z M17.74,3.19C15.68,3.19,14,4.86,14,6.93s1.67,3.74,3.74,3.74s3.74-1.67,3.74-3.74S19.81,3.19,17.74,3.19z
	 M22.88,20.09l5.93,2.14V12.9l-5.93,2.61V20.09z"/>
<path class="st1" d="M35.45,18.23"/>
<circle class="st2" cx="8.18" cy="6.93" r="2.9"/>
<circle class="st2" cx="17.74" cy="6.93" r="2.9"/>
</svg>
